<svg xmlns="http://www.w3.org/2000/svg" width="316.736" height="252.031" viewBox="0 0 316.736 252.031">
  <g id="Group_496" data-name="Group 496" transform="translate(-412.24 -65.086)">
    <g id="Group_495" data-name="Group 495" transform="translate(412.241 65.589)">
      <path id="Path_3513" data-name="Path 3513" d="M705.91,167.71c6.6,38.122-46.042,40.326-36.683,80.144,14.566,61.968-14.051,71.32-86.921,71.32-85.938,0-177.609-26.614-104.857-100.374,28.567-28.963,33.681-47.77,29.9-72.013-6.563-42.068,28-66.48,79.306-53.027C669.781,115.562,693.471,95.907,705.91,167.71Z" transform="translate(-415.833 -67.854)" fill="#cae2ff"/>
      <rect id="Rectangle_971" data-name="Rectangle 971" width="13.405" height="6.64" transform="matrix(0.361, -0.932, 0.932, 0.361, 221.26, 45.36)" fill="#1565d8"/>
      <circle id="Ellipse_200" data-name="Ellipse 200" cx="2.548" cy="2.548" r="2.548" transform="translate(63.124 203.437)" fill="#1565d8"/>
      <circle id="Ellipse_201" data-name="Ellipse 201" cx="2.678" cy="2.678" r="2.678" transform="translate(218.582 122.983)" fill="#fff"/>
      <path id="Path_3514" data-name="Path 3514" d="M497.538,262.068l-6.816-6.808a.454.454,0,0,0-.759.2l-2.527,9.3a.454.454,0,0,0,.554.558l9.342-2.488a.454.454,0,0,0,.205-.76Z" transform="translate(-419.2 -83.135)" fill="#f44968"/>
      <circle id="Ellipse_202" data-name="Ellipse 202" cx="2.678" cy="2.678" r="2.678" transform="translate(124.898 104.829)" fill="#1565d8"/>
      <rect id="Rectangle_972" data-name="Rectangle 972" width="5.705" height="9.123" transform="matrix(0.938, -0.347, 0.347, 0.938, 125.994, 49.631)" fill="#fff"/>
      <rect id="Rectangle_973" data-name="Rectangle 973" width="5.436" height="8.692" transform="matrix(0.595, -0.804, 0.804, 0.595, 25.367, 170.659)" fill="#f2b800"/>
      <g id="Group_486" data-name="Group 486" transform="translate(51.751 32.371)">
        <path id="Path_3515" data-name="Path 3515" d="M482.5,115.353a1.648,1.648,0,0,1-.8-.2c-1.235-.678-1.108-2.645-1.066-3.291a.969.969,0,0,0-.042-.476,3.954,3.954,0,0,0-1.211.078c-.928.137-1.983.294-2.685-.445a2.65,2.65,0,0,1-.4-2.319c.131-.661.047-1.01-.063-1.108-.226-.2-.938-.1-1.255.005-.3.126-2.147.809-3.247-.188-.693-.628-.831-1.661-.41-3.072.153-.512.162-.9.026-1.048-.249-.261-1.123-.248-1.643-.122l-.425-1.764c.23-.057,2.3-.514,3.385.638a2.7,2.7,0,0,1,.4,2.816c-.252.845-.15,1.171-.111,1.207a2.134,2.134,0,0,0,1.4-.168c.247-.085,1.986-.633,3.084.332a2.8,2.8,0,0,1,.646,2.824,1.5,1.5,0,0,0-.038.748,9.655,9.655,0,0,0,1.081-.132,3.15,3.15,0,0,1,2.717.394,2.276,2.276,0,0,1,.613,1.917,3.371,3.371,0,0,0,.128,1.55,1,1,0,0,0,.232-.109l1.072,1.464A2.539,2.539,0,0,1,482.5,115.353Z" transform="translate(-469.271 -101.263)" fill="#70aafb"/>
      </g>
      <g id="Group_487" data-name="Group 487" transform="translate(194.842)">
        <path id="Path_3516" data-name="Path 3516" d="M633.562,75.1l-6.1-7.5,9.514-1.511Z" transform="translate(-627.005 -65.636)" fill="none" stroke="#1565d8" stroke-miterlimit="10" stroke-width="1"/>
        <path id="Path_3517" data-name="Path 3517" d="M633.515,75.506a.454.454,0,0,1-.352-.168l-6.1-7.5a.454.454,0,0,1,.28-.734l9.514-1.511a.454.454,0,0,1,.5.609l-3.411,9.009a.457.457,0,0,1-.352.288A.491.491,0,0,1,633.515,75.506Z" transform="translate(-626.958 -65.589)" fill="none" stroke="#1565d8" stroke-miterlimit="10" stroke-width="1"/>
      </g>
      <g id="Group_488" data-name="Group 488" transform="translate(292.481 34.599)">
        <path id="Path_3518" data-name="Path 3518" d="M736.278,115.3l-1.72-.578a5.231,5.231,0,0,1,2.7-3.124,3.383,3.383,0,0,1,3.026.471,1.97,1.97,0,0,0,1.651.4c.644-.29.961-1.415,1.022-1.786a4.375,4.375,0,0,1,2.1-2.876,3.615,3.615,0,0,1,3.247.191,1.6,1.6,0,0,0,1.086.231c.364-.133.661-.811.947-1.466.554-1.258,1.481-3.365,4.134-2.517,1.788.571,2.307.238,2.393.164a.572.572,0,0,0,.141-.421l1.8-.269a2.367,2.367,0,0,1-.761,2.072c-.862.733-2.21.793-4.12.183-1-.32-1.256,0-1.92,1.517a3.953,3.953,0,0,1-1.982,2.439,3.141,3.141,0,0,1-2.506-.3,1.948,1.948,0,0,0-1.666-.19,2.6,2.6,0,0,0-1.107,1.592,4.31,4.31,0,0,1-2.044,3.087,3.477,3.477,0,0,1-3.374-.516,1.649,1.649,0,0,0-1.444-.3A3.491,3.491,0,0,0,736.278,115.3Z" transform="translate(-734.558 -103.718)" fill="#f2b800"/>
      </g>
      <g id="Group_489" data-name="Group 489" transform="translate(246.932 187.581)">
        <path id="Path_3519" data-name="Path 3519" d="M684.736,286.22a1.841,1.841,0,0,1-.186-1.844c.413-.7,1.4-.962,3.02-.8a1,1,0,0,0,.722-.11c.209-.212.128-.916.063-1.483-.1-.857-.21-1.828.427-2.4a2.209,2.209,0,0,1,2.049-.257c.485.114,1.125.185,1.413-.119.364-.388.178-1.331.108-1.563-.064-.168-.7-1.978.216-2.927.56-.577,1.485-.654,2.754-.229.451.15,1.051.27,1.359,0,.432-.383.372-1.473.275-1.94l1.156-.239c.044.215.4,2.128-.648,3.061a2.44,2.44,0,0,1-2.516.24c-.758-.252-1.328-.279-1.532-.069-.3.312-.114,1.281.053,1.73a3.057,3.057,0,0,1-.365,2.746,2.518,2.518,0,0,1-2.541.462c-.763-.179-.964-.043-1-.013-.181.162-.1.895-.04,1.38a2.931,2.931,0,0,1-.393,2.445,1.963,1.963,0,0,1-1.679.457c-1.634-.159-1.881.214-1.891.23-.075.126.057.448.147.578Z" transform="translate(-684.362 -272.306)" fill="#1565d8"/>
      </g>
      <rect id="Rectangle_974" data-name="Rectangle 974" width="6.64" height="13.405" transform="translate(228.833 154.416) rotate(-78.273)" fill="#f44968"/>
      <g id="Group_490" data-name="Group 490" transform="translate(159.973 128.773)">
        <path id="Path_3520" data-name="Path 3520" d="M588.533,220.072v27.033l30.392.079V224.491a24.378,24.378,0,0,1-30.392-4.419Z" transform="translate(-588.533 -208.663)" fill="#f36480"/>
        <path id="Path_3521" data-name="Path 3521" d="M588.533,207.5v11.409a24.378,24.378,0,0,0,30.392,4.419V207.578Z" transform="translate(-588.533 -207.499)" fill="#f44968"/>
      </g>
      <ellipse id="Ellipse_203" data-name="Ellipse 203" cx="26.875" cy="34.178" rx="26.875" ry="34.178" transform="translate(147.155 75.733)" fill="#f36480"/>
      <path id="Path_3522" data-name="Path 3522" d="M547.795,333.906c2.254.478,22.283,1.835,22.283,1.835s-5.946-32.208,6.243-54.736c0,0-13.625-1.194-25.8-6.23C538.24,306.922,547.795,333.906,547.795,333.906Z" transform="translate(-424.461 -84.953)" fill="#f36480"/>
      <path id="Path_3523" data-name="Path 3523" d="M547.751,334.5l2.236.273s-5.513-32.142-1.605-52.831c0,0,2.469.225-1.757-.681C541.064,312.674,547.751,334.5,547.751,334.5Z" transform="translate(-424.476 -85.554)" fill="#f87b98"/>
      <path id="Path_3524" data-name="Path 3524" d="M631.841,246.052A19.878,19.878,0,0,1,618.7,241.12l-18.373,9.137s-14.141-2.012-19.551-9.137c-1.544,3.346-11.815,5.324-11.941,5.324-10.619,0-19.243,17.316-23.195,27.171,0,0,12.391,7.271,23.01,7.271a366.65,366.65,0,0,0-2.666,51.38s38.417,3.456,69.929-1.893c1.218-20.484-5.448-49.487-5.448-49.487.224,0-.226,0,0,0,10.62,0,25.336-9.508,25.336-9.508C651.849,261.523,642.46,246.052,631.841,246.052Z" transform="translate(-424.589 -81.838)" fill="#1565d8"/>
      <path id="Path_3525" data-name="Path 3525" d="M595.725,253.515s-14.292-13.659-13.87-14.676c3.832-.848,6.51-6.917,6.51-6.917A119.865,119.865,0,0,0,602.2,244.947,70.166,70.166,0,0,0,595.725,253.515Z" transform="translate(-427.941 -80.987)" fill="#1152aa"/>
      <rect id="Rectangle_975" data-name="Rectangle 975" width="7.375" height="16.336" transform="translate(171.426 163.665)" fill="#1152aa"/>
      <path id="Path_3526" data-name="Path 3526" d="M612.663,253.526s14.292-13.659,13.87-14.676c-3.832-.848-6.51-6.916-6.51-6.916a119.872,119.872,0,0,1-13.838,13.024A70.285,70.285,0,0,1,612.663,253.526Z" transform="translate(-430.194 -80.988)" fill="#1152aa"/>
      <path id="Path_3527" data-name="Path 3527" d="M665.615,277.211s-18.891,7.059-27.266,6.71a10.955,10.955,0,0,0-.358-2.955c12.2-.221,26.214-6.853,26.214-6.853Z" transform="translate(-433.138 -84.892)" fill="#1050a7"/>
      <path id="Path_3528" data-name="Path 3528" d="M543.953,280.029s17.481,6.458,25.857,6.109a10.942,10.942,0,0,1,.358-2.955c-12.2-.221-24.8-6.253-24.8-6.253Z" transform="translate(-424.433 -85.153)" fill="#1050a7"/>
      <path id="Path_3529" data-name="Path 3529" d="M621.546,336.62s20.08-1.446,21.18-1.741l-6.971-49.936s.782,36.591-32.87,42.035c0,0-1.323,4.981,5.794,5.532C618.17,333.244,616.647,335.776,621.546,336.62Z" transform="translate(-429.879 -85.895)" fill="#1050a7"/>
      <g id="Group_491" data-name="Group 491" transform="translate(226.267 172.577)">
        <path id="Path_3530" data-name="Path 3530" d="M661.589,256.285a3.074,3.074,0,0,0,.419.654c.182-.134.386-.3.6-.47-.144-.212-.308-.447-.484-.7Z" transform="translate(-661.589 -255.771)" fill="#fff"/>
      </g>
      <path id="Path_3531" data-name="Path 3531" d="M626.2,239.179a5.987,5.987,0,0,1-.759-.419c-3.993,4-11.557,11.252-13.622,13.229.176.25.34.486.485.7C616.01,249.679,624.482,240.953,626.2,239.179Z" transform="translate(-430.715 -81.619)" fill="#fff"/>
      <path id="Path_3532" data-name="Path 3532" d="M582.9,239.172a6.039,6.039,0,0,0,.759-.419c3.992,4,11.557,11.251,13.621,13.229-.176.25-.339.485-.484.7C593.087,249.672,584.614,240.945,582.9,239.172Z" transform="translate(-428.038 -81.619)" fill="#fff"/>
      <path id="Path_3533" data-name="Path 3533" d="M567.533,336.189l6.756.384s-2.261-32.438,0-52.352a12.733,12.733,0,0,0-3.433-.459C565.294,315.176,567.533,336.189,567.533,336.189Z" transform="translate(-426.575 -85.785)" fill="#1050a7"/>
      <path id="Path_3534" data-name="Path 3534" d="M550.038,264.923s7.593-16.3,20.581-16.9c7.554-.346,12.46-1.556,12.944-2.721l-3.016-3.256a20.813,20.813,0,0,1-10.605,3.733C557.177,246.951,550.9,262.283,550.038,264.923Z" transform="translate(-424.996 -81.924)" fill="#1a76ee"/>
      <path id="Path_3535" data-name="Path 3535" d="M657.986,278.819a93.384,93.384,0,0,1-23.583,5.557,109.546,109.546,0,0,1,.393,30.581c-7.908.136-17.807.7-30.014,2.007a3.773,3.773,0,0,1-2.261-1.651c-1.244-1.928-.706-5.356-.706-5.356-.007-1.447,1.469-4.162.023-4.156l-.415,0c-1.447.006-3.893,2.727-3.887,4.174l.017,3.4h-2.12c-2.712,0-7.415.672-6.308,3.54s-1.937,2.01-.61,5.1c0,0,.815,1,.044,3.127-.886,2.444,1.94,3.025,5.663,2.934,3.187-.078,4.69-1.366,7.311-1.666,8.167,2.017,49.447,11.917,55.606,7.452a6.389,6.389,0,0,0,1.815-2.5h0S670.266,310.967,657.986,278.819Z" transform="translate(-428.526 -85.328)" fill="#f36480"/>
      <path id="Path_3536" data-name="Path 3536" d="M663.813,333.8s.711-10.25,1.218-15.126.534-16.851-4.757-38.144l5.994-2.346C676.827,323.225,663.813,333.8,663.813,333.8Z" transform="translate(-435.201 -85.269)" fill="#f44968"/>
      <path id="Path_3537" data-name="Path 3537" d="M528.3,177.962c0,24.021-25.68,43.494-57.358,43.494s-65.946-8.059-57.358-43.494c5.658-23.345,24.3-40.461,56.687-30.674C500.593,156.451,528.3,153.941,528.3,177.962Z" transform="translate(-412.241 -72.892)" fill="#70aafb"/>
      <path id="Path_3538" data-name="Path 3538" d="M530.484,218.4a18.1,18.1,0,0,1-17.05-.336c-9.365-4.938,5.345-12.831,5.345-12.831C519.7,215.914,530.484,218.4,530.484,218.4Z" transform="translate(-421.319 -78.516)" fill="#70aafb"/>
      <g id="Group_492" data-name="Group 492" transform="translate(18.031 106.945)">
        <path id="Path_3539" data-name="Path 3539" d="M432.25,185.383q.205-.367.414-.368.275,0,.552.644.161.436.368,1.127.415,1.265,1.151,3.336a20.465,20.465,0,0,0,.828,2.185q.3.276.989-3.174.046-.323.115-.668a14.093,14.093,0,0,1,.713-2.876.836.836,0,0,1,.6-.207c.29-.031.476.008.553.115q.068.162.483,1.978.758,3.819,1.242,4.395c.061.061.107.061.138,0a15.064,15.064,0,0,0,.391-2.877,19.711,19.711,0,0,1,.345-2.806q.207-.713.667-.783a.549.549,0,0,1,.713.461,3.387,3.387,0,0,1,.046.667q0,.713-.115,1.978a30.523,30.523,0,0,1-1.012,6.051,1.3,1.3,0,0,1-.3.574,1.114,1.114,0,0,1-.552.162h-.091a.929.929,0,0,1-.806-.437,14.668,14.668,0,0,1-.989-2.484q-.207-.69-.667-2.07-.139.391-.506,1.541-.966,3.06-1.84,3.268-.553.137-.921-.553-.344-.667-1.563-4.256a24.566,24.566,0,0,1-.989-3.359,4.962,4.962,0,0,1-.093-.874A1.445,1.445,0,0,1,432.25,185.383Z" transform="translate(-432.111 -183.589)" fill="#fff"/>
        <path id="Path_3540" data-name="Path 3540" d="M452.9,184.042a.739.739,0,0,1-.622.736,14,14,0,0,1-2.829.23l-2.785.07a25.173,25.173,0,0,0,.279,3.289q.067.253,1.7.253,2.623,0,2.714.782a.8.8,0,0,1-.321.621,1.039,1.039,0,0,1-.575.253,10.971,10.971,0,0,1-1.633-.045l-1.84-.138a14.491,14.491,0,0,0,.276,3.336,12.292,12.292,0,0,0,2.738.023q2.76-.069,3.105.414a.95.95,0,0,1,.208.575,1.029,1.029,0,0,1-.093.415q-.23.574-1.38.552-1.15,0-2.047.046-.668.023-1.2.023a3.9,3.9,0,0,1-2.266-.391q-.565-.184-.61-1.22c-.031-.168-.062-.514-.092-1.034q-.46-6.512-.46-8.237a1.908,1.908,0,0,1,.046-.574,1,1,0,0,1,.529-.506,12.03,12.03,0,0,1,1.863-.069h1.542a22.382,22.382,0,0,1,3.5.183A.418.418,0,0,1,452.9,184.042Z" transform="translate(-433.32 -183.444)" fill="#fff"/>
        <path id="Path_3541" data-name="Path 3541" d="M456.386,184.181a.65.65,0,0,1,.438-.23q.275,0,.505.414a3.31,3.31,0,0,1,.115.9q.023.783,0,1.978,0,1.173-.023,2.278t-.046,2.3c-.016.8-.023,1.311-.023,1.542h1.632q3.543.023,4.073.9a.7.7,0,0,1,.092.252.547.547,0,0,1-.115.322c-.107.185-.345.284-.713.3h-.068q-.645,0-3.474-.207a9.291,9.291,0,0,1-2.807-.368,1.543,1.543,0,0,1-.206-.966q0-.758.23-4.739A36.5,36.5,0,0,1,456.386,184.181Z" transform="translate(-434.301 -183.491)" fill="#fff"/>
        <path id="Path_3542" data-name="Path 3542" d="M468.047,183.872a4.54,4.54,0,0,1,1.565-.276h.437a3.987,3.987,0,0,1,1.794.621q.781.506.552,1.082c-.061.169-.146.26-.253.276a3.637,3.637,0,0,1-.874-.253,5.287,5.287,0,0,0-1.634-.276,2.412,2.412,0,0,0-2.139,1.242,5.012,5.012,0,0,0-.575,3.175,8.8,8.8,0,0,0,.345,2.07,3.015,3.015,0,0,0,.713,1.173,2.469,2.469,0,0,0,1.4.737,1.426,1.426,0,0,0,.806,0,4.772,4.772,0,0,0,.874-.575q1.127-.828,1.5-.484a.371.371,0,0,1,.139.3,2.144,2.144,0,0,1-.485.966,3.1,3.1,0,0,1-2.462,1.38H469.7a3.878,3.878,0,0,1-2.715-1.289,4.668,4.668,0,0,1-1.173-1.933,10.446,10.446,0,0,1-.367-2.9c-.015-.168-.023-.322-.023-.46a7.021,7.021,0,0,1,.068-1.127,5.138,5.138,0,0,1,.415-1.173,6.365,6.365,0,0,1,.9-1.4A3.9,3.9,0,0,1,468.047,183.872Z" transform="translate(-435.195 -183.458)" fill="#fff"/>
        <path id="Path_3543" data-name="Path 3543" d="M484.782,191.886a4.628,4.628,0,0,1-2.525,3.06,5.317,5.317,0,0,1-2.409.575,6.123,6.123,0,0,1-1.906-.322q-1.263-.368-2.409-2.6a4.707,4.707,0,0,1-.459-1.173,7.407,7.407,0,0,1-.093-1.357,9.391,9.391,0,0,1,.184-2.071,5.449,5.449,0,0,1,.759-1.61,6,6,0,0,1,1.035-1.266,4.132,4.132,0,0,1,1.152-.667,5.481,5.481,0,0,1,1.748-.276h.229a6.294,6.294,0,0,1,1.611.184,3.719,3.719,0,0,1,1.7,1.2,5.665,5.665,0,0,1,1.178,2.071,9.488,9.488,0,0,1,.34,2.231c.014.184.023.36.023.529A6.04,6.04,0,0,1,484.782,191.886Zm-3.726-6.027a4.375,4.375,0,0,0-1.128-.162,3.037,3.037,0,0,0-2.093.8,4.6,4.6,0,0,0-1.311,3.5v.092a4.522,4.522,0,0,0,.552,2.048,3.383,3.383,0,0,0,1.311,1.5,2.863,2.863,0,0,0,1.335.322,4.025,4.025,0,0,0,1.219-.207,3.185,3.185,0,0,0,2-1.542,4.793,4.793,0,0,0,.346-1.909,3.137,3.137,0,0,1,.023-.391,6.171,6.171,0,0,0-.23-1.818,3.964,3.964,0,0,0-.828-1.426A2.477,2.477,0,0,0,481.056,185.859Z" transform="translate(-436.079 -183.512)" fill="#fff"/>
        <path id="Path_3544" data-name="Path 3544" d="M488.334,184.153q.437,0,1.473,1.449a42.235,42.235,0,0,1,2.438,4.073q.322.621,1.013,1.864.321-.736,1.289-2.968a29.075,29.075,0,0,1,1.632-3.358c.369-.583.729-.875,1.082-.875.307,0,.5.077.575.231q.553.851.8,6.74.093,2.093.093,2.807v.23a1.084,1.084,0,0,1-.277.782.775.775,0,0,1-.483.207.606.606,0,0,1-.276-.069.983.983,0,0,1-.437-.782q-.069-.574-.183-3.313a20.11,20.11,0,0,0-.23-3.336q-.092-.139-.483.575a27.123,27.123,0,0,0-1.91,4.6,4.363,4.363,0,0,1-.691,1.426c-.245.292-.491.368-.735.23a1.92,1.92,0,0,1-.6-1.035,24.353,24.353,0,0,0-1.45-3.083,28.266,28.266,0,0,0-1.633-2.922q-.207-.23-.253.114-.046.438.046,3.221.068,2.439.045,3.106a1.4,1.4,0,0,1-.229.828c-.123.108-.223.153-.3.139a.873.873,0,0,1-.344-.254,3.413,3.413,0,0,1-.576-1.817q-.161-1.427-.207-4.6-.023-.76-.023-1.38a7.16,7.16,0,0,1,.207-2.508A.764.764,0,0,1,488.334,184.153Z" transform="translate(-437.239 -183.51)" fill="#fff"/>
        <path id="Path_3545" data-name="Path 3545" d="M509.105,184.042a.739.739,0,0,1-.622.736,14,14,0,0,1-2.829.23l-2.785.07a24.933,24.933,0,0,0,.28,3.289q.065.253,1.7.253,2.623,0,2.715.782a.8.8,0,0,1-.322.621,1.038,1.038,0,0,1-.575.253,10.973,10.973,0,0,1-1.633-.045l-1.84-.138a14.493,14.493,0,0,0,.276,3.336,12.292,12.292,0,0,0,2.738.023q2.762-.069,3.106.414a.954.954,0,0,1,.207.575,1.026,1.026,0,0,1-.093.415q-.23.574-1.379.552-1.152,0-2.048.046-.668.023-1.2.023a3.9,3.9,0,0,1-2.266-.391q-.565-.184-.61-1.22c-.031-.168-.061-.514-.092-1.034q-.46-6.512-.46-8.237a1.911,1.911,0,0,1,.046-.574,1,1,0,0,1,.529-.506,12.03,12.03,0,0,1,1.863-.069h1.542a22.382,22.382,0,0,1,3.5.183A.417.417,0,0,1,509.105,184.042Z" transform="translate(-438.523 -183.444)" fill="#fff"/>
        <path id="Path_3546" data-name="Path 3546" d="M513.113,194.972a.854.854,0,0,1-.092.483.782.782,0,0,1-.484.092.632.632,0,0,1-.6-.276.525.525,0,0,1-.069-.276.942.942,0,0,1,.115-.415.4.4,0,0,1,.414-.23h.184q.344.023.437.161A.8.8,0,0,1,513.113,194.972Zm-.944-9.939a.448.448,0,0,1,.415-.322h.115a.7.7,0,0,1,.506.484,16.692,16.692,0,0,1,.183,3.243v.691a20.985,20.985,0,0,1-.137,3.014,1.8,1.8,0,0,1-.208.621.368.368,0,0,1-.3.185.663.663,0,0,1-.161.023q-.483-.023-.6-.6a13.822,13.822,0,0,1-.069-1.749q0-.736.023-1.726A26.051,26.051,0,0,1,512.169,185.033Z" transform="translate(-439.494 -183.561)" fill="#fff"/>
      </g>
      <path id="Path_3547" data-name="Path 3547" d="M721.844,251.779c3.313,7.049,3.33,9.966-6.492,11.5-6.461,1.006-11.84-5.682-11.84-12.691a12.427,12.427,0,0,1,12.271-12.446C722.322,238.139,718.864,245.436,721.844,251.779Z" transform="translate(-439.203 -81.562)" fill="#cae2ff"/>
      <path id="Path_3548" data-name="Path 3548" d="M638.565,167.424h0c.918-1.973,1.322-4.522,1.322-8.763,0-6.715-4.423-12.691-11.649-12.691a14.237,14.237,0,0,0-1.585.1c-1.081-8.616-10.141-15.342-21.16-15.342-9.594,0-22.373,2.048-25.973,11.909-6.5-1.389-10.48,2.6-10.48,7.022,0,2.224,1.465,4.487,3.516,6.188-.511,2.788-.581,7.6-.581,13.178,0,5.751.994,13.4,1.936,16.22,0,0,1.365.089,1.452-.544.526-3.829.523-12.1,1.411-17.808.313-2.017,4.458-7.219,4.809-8.186.04-.11.07-.21.105-.315l.126-.031c.109,3.227,1.449,4.915,7.12,6.313a9.624,9.624,0,0,0,9.379-2.759,13.137,13.137,0,0,0,6.023,1.527c2.361,0,3.417-1.377,4.426-3.181h0c2.21-3.74,2.585-2.254,6.732-2.254,4.776,0,8.062,2.612,8.062,7.387,0,1-1.456,4-1.77,4.9l.01,0a1.82,1.82,0,0,0-.038,1.009c2.6,5.336-.01,4.369-2.671,9.613-.727,1.432,1.1,5.567,3.092,2.378,1.606-2.564,4.795-4.218,9.429-1.762a80.558,80.558,0,0,1,6.129-12.662,10.011,10.011,0,0,0,.813-1.418Z" transform="translate(-426.755 -71.619)" fill="#123a71"/>
      <g id="Group_493" data-name="Group 493" transform="translate(166.473 75.117)">
        <path id="Path_3549" data-name="Path 3549" d="M598.865,150.848a10.8,10.8,0,0,1,1.442-2.479,8.562,8.562,0,0,0-3.965,4.344,8.746,8.746,0,0,0,4.852,11.378,8.889,8.889,0,0,0,3.2.662A10.771,10.771,0,0,1,598.865,150.848Z" transform="translate(-595.696 -148.369)" fill="#112d52"/>
      </g>
      <g id="Group_494" data-name="Group 494" transform="translate(153.248 78.933)">
        <path id="Path_3550" data-name="Path 3550" d="M583.525,156.584a37.613,37.613,0,0,1,1.376-4.009c-1.139.6-2.934,3.858-3.457,5.134-1.2,2.912,1.117,6.219,4.074,7.434.69.284.936.56,1.637.574A7.075,7.075,0,0,1,583.525,156.584Z" transform="translate(-581.122 -152.575)" fill="#112d52"/>
      </g>
      <path id="Path_3551" data-name="Path 3551" d="M584.412,145.027c0,1.111.4,1.974-.58.446-.889-1.388-3.245-1.776-3.245-1.776a7.128,7.128,0,0,1,.624-1.505A3.349,3.349,0,0,1,584.412,145.027Z" transform="translate(-427.824 -72.68)" fill="#112d52"/>
      <path id="Path_3552" data-name="Path 3552" d="M639.234,191.912a7.627,7.627,0,0,1-7.628,7.627c-4.212,0-8.308-4.18-6.052-7.738,3.38-5.334,4.287-7.739,8.5-7.739S639.234,187.7,639.234,191.912Z" transform="translate(-431.927 -76.556)" fill="#f36480"/>
      <path id="Path_3553" data-name="Path 3553" d="M584.566,192.013c0,3.588-3.415,6.5-7.627,6.5s-6.509-3.025-6.053-6.591c.763-5.978,4.287-6.591,8.5-6.591S584.566,188.425,584.566,192.013Z" transform="translate(-426.921 -76.673)" fill="#f36480"/>
    </g>
    <rect id="Rectangle_976" data-name="Rectangle 976" width="8.692" height="5.436" transform="matrix(0.975, -0.222, 0.222, 0.975, 642.58, 168.732)" fill="#f2b800"/>
    <path id="Path_3554" data-name="Path 3554" d="M665.131,281.843s-8.623,7.061-25.4,7.061c0,0-.227-1.878-.617-4.586,11.024-1.177,24.94-6.129,24.94-6.129A13.53,13.53,0,0,1,665.131,281.843Z" transform="translate(-21.002 -19.68)" fill="#f44968"/>
    <path id="Path_3555" data-name="Path 3555" d="M546.092,285.707c5.417,5.25,21.16,9.452,21.16,9.452s.525-4.713,1.173-8.607c0,0-6.548,0-21.617-5.291Z" transform="translate(-12.39 -19.964)" fill="#f44968"/>
  </g>
</svg>
